<svg xmlns="http://www.w3.org/2000/svg" viewBox="0 0 800 600" role="img">
  <title>Stromversorgungen</title>
  <rect width="800" height="600" fill="#f0f9fe"/>
  <circle cx="400" cy="300" r="150" fill="#e0f2fc"/>
  <g transform="translate(330 180) scale(5.8333)" fill="none" stroke="#0084c4" stroke-width="2" stroke-linecap="round" stroke-linejoin="round">
    <path d="M4 14a1 1 0 0 1-.78-1.63l9.9-10.2a.5.5 0 0 1 .86.46l-1.92 6.02A1 1 0 0 0 13 10h7a1 1 0 0 1 .78 1.63l-9.9 10.2a.5.5 0 0 1-.86-.46l1.92-6.02A1 1 0 0 0 11 14z"/>
  </g>
  <text x="400" y="430" text-anchor="middle" font-family="Inter, system-ui, sans-serif" font-weight="600" fill="#005580" font-size="36">Stromversorgungen</text>
</svg>
