<svg xmlns="http://www.w3.org/2000/svg" viewBox="0 0 800 600" role="img">
  <title>Touchscreens</title>
  <rect width="800" height="600" fill="#f0f9fe"/>
  <circle cx="400" cy="300" r="150" fill="#e0f2fc"/>
  <g transform="translate(330 180) scale(5.8333)" fill="none" stroke="#0084c4" stroke-width="2" stroke-linecap="round" stroke-linejoin="round">
    <path d="M21 8a2 2 0 0 0-1-1.73l-7-4a2 2 0 0 0-2 0l-7 4A2 2 0 0 0 3 8v8a2 2 0 0 0 1 1.73l7 4a2 2 0 0 0 2 0l7-4A2 2 0 0 0 21 16Z"/>
    <path d="m3.3 7 8.7 5 8.7-5"/>
    <path d="M12 22V12"/>
  </g>
  <text x="400" y="430" text-anchor="middle" font-family="Inter, system-ui, sans-serif" font-weight="600" fill="#005580" font-size="44">Touchscreens</text>
</svg>
